<svg xmlns="http://www.w3.org/2000/svg" fill="none" viewBox="0 0 111 21"><g fill="#1E1E1E"><path d="M21.15 13.71c-.69 0-.93-.92-.34-1.27l6.55-3.81a.2.2 0 0 0 .07-.28l-.87-1.53a.2.2 0 0 0-.28-.08l-6.54 3.82c-.6.35-1.26-.33-.92-.93l3.78-6.6a.2.2 0 0 0-.07-.28L21 1.86a.2.2 0 0 0-.27.08l-3.78 6.61c-.34.6-1.25.36-1.25-.34V.58a.2.2 0 0 0-.2-.2h-1.75a.2.2 0 0 0-.2.2V8.2c0 .7-.91.94-1.26.34L8.52 1.94a.2.2 0 0 0-.27-.08l-1.51.89a.2.2 0 0 0-.08.27l3.78 6.61c.34.6-.32 1.28-.92.93L2.98 6.74a.2.2 0 0 0-.27.08l-.88 1.53a.2.2 0 0 0 .08.28l6.54 3.81c.6.35.35 1.27-.34 1.27H.21a.2.2 0 0 0-.21.2v1.77c0 .11.09.2.2.2h10.16c.6 0 1.08-.48 1.08-1.08a3.2 3.2 0 0 1 3.2-3.23 3.2 3.2 0 0 1 3.18 3.23c0 .6.48 1.08 1.08 1.08h10.16a.2.2 0 0 0 .2-.2V13.9a.2.2 0 0 0-.2-.2h-7.91ZM37.19.38h-4.64a.2.2 0 0 0-.19.2v15.1c0 .12.09.2.2.2h4.63c2.69 0 4.78-.63 6.21-1.87 1.44-1.26 2.17-3.24 2.17-5.9 0-5.13-2.82-7.73-8.38-7.73Zm-2.26 2.66c0-.1.09-.2.2-.2h1.9c1.41 0 2.56.19 3.42.54.84.35 1.48.9 1.88 1.65.42.76.63 1.8.63 3.08 0 1.91-.46 3.3-1.37 4.1-.9.81-2.41 1.23-4.47 1.23h-2a.2.2 0 0 1-.18-.2V3.04ZM58.34 9.47a6.66 6.66 0 0 0-.89-3 5.51 5.51 0 0 0-2.1-2.03 6.08 6.08 0 0 0-2.95-.72c-1.23 0-2.32.26-3.25.78a5.52 5.52 0 0 0-2.2 2.24 6.88 6.88 0 0 0-.78 3.31c0 1.25.25 2.26.74 3.17a5.32 5.32 0 0 0 2.07 2.16c.9.5 1.92.77 3.07.77 1.08 0 2.03-.24 2.82-.71.49-.3.9-.66 1.22-1.09a.12.12 0 0 1 .22.07l.05 1.32c0 .1.08.19.19.19h1.92c.11 0 .2-.1.2-.2l-.17-3.8c-.03-.77-.08-1.6-.16-2.46Zm-7.9-2.89c.56-.32 1.2-.48 1.91-.48a3.32 3.32 0 0 1 3.08 1.87c.3.59.45 1.26.45 2 0 1.17-.33 2.12-.98 2.8a3.42 3.42 0 0 1-2.59 1.04 3.5 3.5 0 0 1-2.64-1.05c-.66-.7-1-1.64-1-2.8 0-.75.16-1.42.47-2.01.3-.58.74-1.04 1.3-1.37ZM63.6 12.24l-3.53-8.08a.2.2 0 0 0-.17-.12h-2.27a.2.2 0 0 0-.18.28l4.97 10.99-1.41 3.5a.2.2 0 0 0 .18.28h2.2a.2.2 0 0 0 .18-.12L69.73 4.3a.2.2 0 0 0-.17-.27h-2.23a.2.2 0 0 0-.18.12l-3.32 8.07c-.05.1-.18.1-.23 0ZM73.17.38h-2.12a.2.2 0 0 0-.19.2V15.7c0 .1.09.2.2.2h2.11c.1 0 .2-.1.2-.2V.58a.2.2 0 0 0-.2-.2ZM76.88.38h-2.12a.2.2 0 0 0-.19.2v2.14c0 .1.09.2.2.2h2.11c.1 0 .2-.1.2-.2V.58a.2.2 0 0 0-.2-.2ZM76.88 4.04h-2.12a.2.2 0 0 0-.19.2V15.7c0 .1.09.2.2.2h2.11c.1 0 .2-.1.2-.2V4.24a.2.2 0 0 0-.2-.2ZM83.65 3.62c-2.83 0-5.54 2.16-5.54 6.05 0 3.4 2.48 5.97 5.75 5.97a5.2 5.2 0 0 0 3.47-1.3c.07-.06.2 0 .2.1v.58a3.32 3.32 0 0 1-3.47 3.48c-1.6 0-2.86-.79-3.34-2.26a.2.2 0 0 0-.18-.13h-2.15c-.1 0-.19.1-.17.2.6 2.87 2.92 4.55 5.85 4.55a5.67 5.67 0 0 0 5.88-5.84V4.07a.2.2 0 0 0-.2-.2h-1.7a.2.2 0 0 0-.2.2v1.28c0 .12-.14.17-.21.07a5.06 5.06 0 0 0-3.98-1.8Zm3.8 6.04c0 1.75-1.2 3.6-3.42 3.6-1.94 0-3.41-1.55-3.41-3.6s1.47-3.58 3.41-3.58c2.22 0 3.42 1.85 3.42 3.58ZM100.35 4.38a5.25 5.25 0 0 0-2.69-.66c-1.58 0-2.82.47-3.67 1.4-.08.08-.21.03-.21-.08L93.8.58a.2.2 0 0 0-.19-.2H91.5a.2.2 0 0 0-.19.2V15.7c0 .1.09.2.2.2h2.11c.1 0 .2-.1.2-.2V9.77c.02-1.21.32-2.15.9-2.78.56-.62 1.4-.94 2.51-.94 1.05 0 1.82.28 2.3.84.47.56.71 1.44.71 2.6v6.22c0 .1.09.2.2.2h2.12c.1 0 .19-.1.19-.2V9.1c0-1.07-.21-2.03-.63-2.83a4.58 4.58 0 0 0-1.77-1.9ZM111 13.6c.01-.1-.08-.18-.18-.16-.48.15-1.03.17-1.58.17-.96 0-1.67-.23-2.13-.69-.46-.45-.69-1.27-.69-2.41V6.55c0-.1.09-.2.2-.2h4.12c.1 0 .19-.08.19-.19V4.24a.2.2 0 0 0-.2-.2h-4.12a.2.2 0 0 1-.19-.2V1.28a.2.2 0 0 0-.2-.2h-2.11a.2.2 0 0 0-.2.2v8.97c0 3.8 1.66 5.73 4.92 5.73.55 0 .94-.01 1.18-.04a5 5 0 0 0 .62-.1.2.2 0 0 0 .15-.16l.22-2.07Z"/></g></svg>